<mxfile host="Electron" modified="2024-07-30T09:41:38.203Z" agent="Mozilla/5.0 (Windows NT 10.0; Win64; x64) AppleWebKit/537.36 (KHTML, like Gecko) draw.io/24.6.4 Chrome/124.0.6367.207 Electron/30.0.6 Safari/537.36" etag="ImNFrMlN3ZCRQUZ8jHXg" version="24.6.4" type="device">
  <diagram name="Page-1" id="potz0bhs9su5Xl_rL4Kl">
    <mxGraphModel dx="1562" dy="917" grid="0" gridSize="10" guides="1" tooltips="1" connect="1" arrows="1" fold="1" page="1" pageScale="1" pageWidth="4681" pageHeight="3300" math="0" shadow="0">
      <root>
        <mxCell id="0" />
        <mxCell id="1" parent="0" />
        <mxCell id="5yyWa3kHoQBunB_b2Re6-10" style="edgeStyle=elbowEdgeStyle;rounded=0;orthogonalLoop=1;jettySize=auto;html=1;elbow=vertical;curved=0;" parent="1" target="5yyWa3kHoQBunB_b2Re6-2" edge="1">
          <mxGeometry relative="1" as="geometry">
            <mxPoint x="309.5" y="149" as="sourcePoint" />
            <mxPoint x="609.5" y="149" as="targetPoint" />
          </mxGeometry>
        </mxCell>
        <mxCell id="5yyWa3kHoQBunB_b2Re6-11" value="GetEnv(&quot;IONOS_EXPORTER_APPLICATION_CONTAINER_PORT)" style="edgeLabel;html=1;align=center;verticalAlign=middle;resizable=0;points=[];" parent="5yyWa3kHoQBunB_b2Re6-10" vertex="1" connectable="0">
          <mxGeometry x="-0.87" y="3" relative="1" as="geometry">
            <mxPoint x="157" y="-6" as="offset" />
          </mxGeometry>
        </mxCell>
        <mxCell id="5yyWa3kHoQBunB_b2Re6-1" value="main" style="shape=umlLifeline;perimeter=lifelinePerimeter;whiteSpace=wrap;html=1;container=1;dropTarget=0;collapsible=0;recursiveResize=0;outlineConnect=0;portConstraint=eastwest;newEdgeStyle={&quot;edgeStyle&quot;:&quot;elbowEdgeStyle&quot;,&quot;elbow&quot;:&quot;vertical&quot;,&quot;curved&quot;:0,&quot;rounded&quot;:0};fillColor=#f5f5f5;fontColor=#333333;strokeColor=#666666;" parent="1" vertex="1">
          <mxGeometry x="260" y="50" width="100" height="1070" as="geometry" />
        </mxCell>
        <mxCell id="5yyWa3kHoQBunB_b2Re6-20" value="" style="html=1;points=[[0,0,0,0,5],[0,1,0,0,-5],[1,0,0,0,5],[1,1,0,0,-5]];perimeter=orthogonalPerimeter;outlineConnect=0;targetShapes=umlLifeline;portConstraint=eastwest;newEdgeStyle={&quot;curved&quot;:0,&quot;rounded&quot;:0};" parent="5yyWa3kHoQBunB_b2Re6-1" vertex="1">
          <mxGeometry x="45" y="71" width="10" height="999" as="geometry" />
        </mxCell>
        <mxCell id="5yyWa3kHoQBunB_b2Re6-2" value="Internal" style="shape=umlLifeline;perimeter=lifelinePerimeter;whiteSpace=wrap;html=1;container=1;dropTarget=0;collapsible=0;recursiveResize=0;outlineConnect=0;portConstraint=eastwest;newEdgeStyle={&quot;edgeStyle&quot;:&quot;elbowEdgeStyle&quot;,&quot;elbow&quot;:&quot;vertical&quot;,&quot;curved&quot;:0,&quot;rounded&quot;:0};fillColor=#f5f5f5;fontColor=#333333;strokeColor=#666666;" parent="1" vertex="1">
          <mxGeometry x="630" y="50" width="100" height="1070" as="geometry" />
        </mxCell>
        <mxCell id="5yyWa3kHoQBunB_b2Re6-22" value="" style="html=1;points=[[0,0,0,0,5],[0,1,0,0,-5],[1,0,0,0,5],[1,1,0,0,-5]];perimeter=orthogonalPerimeter;outlineConnect=0;targetShapes=umlLifeline;portConstraint=eastwest;newEdgeStyle={&quot;curved&quot;:0,&quot;rounded&quot;:0};" parent="5yyWa3kHoQBunB_b2Re6-2" vertex="1">
          <mxGeometry x="45" y="150" width="10" height="40" as="geometry" />
        </mxCell>
        <mxCell id="5yyWa3kHoQBunB_b2Re6-25" value="" style="html=1;points=[[0,0,0,0,5],[0,1,0,0,-5],[1,0,0,0,5],[1,1,0,0,-5]];perimeter=orthogonalPerimeter;outlineConnect=0;targetShapes=umlLifeline;portConstraint=eastwest;newEdgeStyle={&quot;curved&quot;:0,&quot;rounded&quot;:0};fillStyle=auto;" parent="5yyWa3kHoQBunB_b2Re6-2" vertex="1">
          <mxGeometry x="45" y="210" width="10" height="860" as="geometry" />
        </mxCell>
        <mxCell id="5yyWa3kHoQBunB_b2Re6-28" style="edgeStyle=orthogonalEdgeStyle;rounded=0;orthogonalLoop=1;jettySize=auto;html=1;curved=0;" parent="5yyWa3kHoQBunB_b2Re6-2" edge="1">
          <mxGeometry relative="1" as="geometry">
            <mxPoint x="55" y="230" as="sourcePoint" />
            <mxPoint x="55" y="250" as="targetPoint" />
            <Array as="points">
              <mxPoint x="130" y="230" />
            </Array>
          </mxGeometry>
        </mxCell>
        <mxCell id="5yyWa3kHoQBunB_b2Re6-29" value="LoadConfig(&quot;./charts/ionos-exporter/config.yaml&quot;)" style="edgeLabel;html=1;align=center;verticalAlign=middle;resizable=0;points=[];" parent="5yyWa3kHoQBunB_b2Re6-28" vertex="1" connectable="0">
          <mxGeometry x="-0.6588" y="-3" relative="1" as="geometry">
            <mxPoint x="96" y="-13" as="offset" />
          </mxGeometry>
        </mxCell>
        <mxCell id="5yyWa3kHoQBunB_b2Re6-33" value="" style="html=1;points=[[0,0,0,0,5],[0,1,0,0,-5],[1,0,0,0,5],[1,1,0,0,-5]];perimeter=orthogonalPerimeter;outlineConnect=0;targetShapes=umlLifeline;portConstraint=eastwest;newEdgeStyle={&quot;curved&quot;:0,&quot;rounded&quot;:0};" parent="5yyWa3kHoQBunB_b2Re6-2" vertex="1">
          <mxGeometry x="50" y="270" width="10" height="40" as="geometry" />
        </mxCell>
        <mxCell id="5yyWa3kHoQBunB_b2Re6-41" value="" style="html=1;points=[[0,0,0,0,5],[0,1,0,0,-5],[1,0,0,0,5],[1,1,0,0,-5]];perimeter=orthogonalPerimeter;outlineConnect=0;targetShapes=umlLifeline;portConstraint=eastwest;newEdgeStyle={&quot;curved&quot;:0,&quot;rounded&quot;:0};" parent="5yyWa3kHoQBunB_b2Re6-2" vertex="1">
          <mxGeometry x="50" y="360" width="10" height="110" as="geometry" />
        </mxCell>
        <mxCell id="5yyWa3kHoQBunB_b2Re6-66" style="edgeStyle=orthogonalEdgeStyle;rounded=0;orthogonalLoop=1;jettySize=auto;html=1;curved=0;" parent="5yyWa3kHoQBunB_b2Re6-2" edge="1">
          <mxGeometry relative="1" as="geometry">
            <mxPoint x="55" y="550" as="sourcePoint" />
            <mxPoint x="55" y="570" as="targetPoint" />
            <Array as="points">
              <mxPoint x="120" y="570" />
            </Array>
          </mxGeometry>
        </mxCell>
        <mxCell id="5yyWa3kHoQBunB_b2Re6-67" value="GetHeadBucket(client bucketName)" style="edgeLabel;html=1;align=center;verticalAlign=middle;resizable=0;points=[];" parent="5yyWa3kHoQBunB_b2Re6-66" vertex="1" connectable="0">
          <mxGeometry x="-0.722" y="1" relative="1" as="geometry">
            <mxPoint x="74" y="-9" as="offset" />
          </mxGeometry>
        </mxCell>
        <mxCell id="5yyWa3kHoQBunB_b2Re6-73" value="" style="html=1;points=[[0,0,0,0,5],[0,1,0,0,-5],[1,0,0,0,5],[1,1,0,0,-5]];perimeter=orthogonalPerimeter;outlineConnect=0;targetShapes=umlLifeline;portConstraint=eastwest;newEdgeStyle={&quot;curved&quot;:0,&quot;rounded&quot;:0};" parent="5yyWa3kHoQBunB_b2Re6-2" vertex="1">
          <mxGeometry x="50" y="620" width="10" height="400" as="geometry" />
        </mxCell>
        <mxCell id="5yyWa3kHoQBunB_b2Re6-74" style="edgeStyle=orthogonalEdgeStyle;rounded=0;orthogonalLoop=1;jettySize=auto;html=1;curved=0;" parent="5yyWa3kHoQBunB_b2Re6-2" target="5yyWa3kHoQBunB_b2Re6-76" edge="1">
          <mxGeometry relative="1" as="geometry">
            <mxPoint x="60" y="640" as="sourcePoint" />
            <mxPoint x="70" y="660" as="targetPoint" />
            <Array as="points">
              <mxPoint x="140" y="640" />
              <mxPoint x="140" y="660" />
            </Array>
          </mxGeometry>
        </mxCell>
        <mxCell id="5yyWa3kHoQBunB_b2Re6-75" value="getBucketTags(client, bucketName)" style="edgeLabel;html=1;align=center;verticalAlign=middle;resizable=0;points=[];" parent="5yyWa3kHoQBunB_b2Re6-74" vertex="1" connectable="0">
          <mxGeometry x="-0.6791" y="1" relative="1" as="geometry">
            <mxPoint x="63" y="-9" as="offset" />
          </mxGeometry>
        </mxCell>
        <mxCell id="5yyWa3kHoQBunB_b2Re6-76" value="" style="html=1;points=[[0,0,0,0,5],[0,1,0,0,-5],[1,0,0,0,5],[1,1,0,0,-5]];perimeter=orthogonalPerimeter;outlineConnect=0;targetShapes=umlLifeline;portConstraint=eastwest;newEdgeStyle={&quot;curved&quot;:0,&quot;rounded&quot;:0};" parent="5yyWa3kHoQBunB_b2Re6-2" vertex="1">
          <mxGeometry x="55" y="660" width="10" height="350" as="geometry" />
        </mxCell>
        <mxCell id="5yyWa3kHoQBunB_b2Re6-96" value="" style="html=1;points=[[0,0,0,0,5],[0,1,0,0,-5],[1,0,0,0,5],[1,1,0,0,-5]];perimeter=orthogonalPerimeter;outlineConnect=0;targetShapes=umlLifeline;portConstraint=eastwest;newEdgeStyle={&quot;curved&quot;:0,&quot;rounded&quot;:0};" parent="5yyWa3kHoQBunB_b2Re6-2" vertex="1">
          <mxGeometry x="60" y="860" width="10" height="120" as="geometry" />
        </mxCell>
        <mxCell id="5yyWa3kHoQBunB_b2Re6-97" value="processObject(client, bucketName, object)" style="html=1;align=left;spacingLeft=2;endArrow=block;rounded=0;edgeStyle=orthogonalEdgeStyle;curved=0;rounded=0;" parent="5yyWa3kHoQBunB_b2Re6-2" target="5yyWa3kHoQBunB_b2Re6-96" edge="1">
          <mxGeometry x="-0.0028" relative="1" as="geometry">
            <mxPoint x="65" y="840" as="sourcePoint" />
            <Array as="points">
              <mxPoint x="95" y="870" />
            </Array>
            <mxPoint as="offset" />
          </mxGeometry>
        </mxCell>
        <mxCell id="5yyWa3kHoQBunB_b2Re6-3" value="OS" style="shape=umlLifeline;perimeter=lifelinePerimeter;whiteSpace=wrap;html=1;container=1;dropTarget=0;collapsible=0;recursiveResize=0;outlineConnect=0;portConstraint=eastwest;newEdgeStyle={&quot;edgeStyle&quot;:&quot;elbowEdgeStyle&quot;,&quot;elbow&quot;:&quot;vertical&quot;,&quot;curved&quot;:0,&quot;rounded&quot;:0};fillColor=#f5f5f5;fontColor=#333333;strokeColor=#666666;" parent="1" vertex="1">
          <mxGeometry x="1130" y="50" width="100" height="1070" as="geometry" />
        </mxCell>
        <mxCell id="5yyWa3kHoQBunB_b2Re6-4" value="AWS" style="shape=umlLifeline;perimeter=lifelinePerimeter;whiteSpace=wrap;html=1;container=1;dropTarget=0;collapsible=0;recursiveResize=0;outlineConnect=0;portConstraint=eastwest;newEdgeStyle={&quot;edgeStyle&quot;:&quot;elbowEdgeStyle&quot;,&quot;elbow&quot;:&quot;vertical&quot;,&quot;curved&quot;:0,&quot;rounded&quot;:0};fillColor=#f5f5f5;fontColor=#333333;strokeColor=#666666;" parent="1" vertex="1">
          <mxGeometry x="1280" y="50" width="100" height="1070" as="geometry" />
        </mxCell>
        <mxCell id="5yyWa3kHoQBunB_b2Re6-44" value="" style="html=1;points=[[0,0,0,0,5],[0,1,0,0,-5],[1,0,0,0,5],[1,1,0,0,-5]];perimeter=orthogonalPerimeter;outlineConnect=0;targetShapes=umlLifeline;portConstraint=eastwest;newEdgeStyle={&quot;curved&quot;:0,&quot;rounded&quot;:0};" parent="5yyWa3kHoQBunB_b2Re6-4" vertex="1">
          <mxGeometry x="45" y="390" width="10" height="40" as="geometry" />
        </mxCell>
        <mxCell id="5yyWa3kHoQBunB_b2Re6-5" value="S3" style="shape=umlLifeline;perimeter=lifelinePerimeter;whiteSpace=wrap;html=1;container=1;dropTarget=0;collapsible=0;recursiveResize=0;outlineConnect=0;portConstraint=eastwest;newEdgeStyle={&quot;edgeStyle&quot;:&quot;elbowEdgeStyle&quot;,&quot;elbow&quot;:&quot;vertical&quot;,&quot;curved&quot;:0,&quot;rounded&quot;:0};fillColor=#f5f5f5;fontColor=#333333;strokeColor=#666666;" parent="1" vertex="1">
          <mxGeometry x="1450" y="50" width="100" height="1070" as="geometry" />
        </mxCell>
        <mxCell id="5yyWa3kHoQBunB_b2Re6-63" value="" style="html=1;points=[[0,0,0,0,5],[0,1,0,0,-5],[1,0,0,0,5],[1,1,0,0,-5]];perimeter=orthogonalPerimeter;outlineConnect=0;targetShapes=umlLifeline;portConstraint=eastwest;newEdgeStyle={&quot;curved&quot;:0,&quot;rounded&quot;:0};" parent="5yyWa3kHoQBunB_b2Re6-5" vertex="1">
          <mxGeometry x="45" y="490" width="10" height="30" as="geometry" />
        </mxCell>
        <mxCell id="5yyWa3kHoQBunB_b2Re6-78" value="" style="html=1;points=[[0,0,0,0,5],[0,1,0,0,-5],[1,0,0,0,5],[1,1,0,0,-5]];perimeter=orthogonalPerimeter;outlineConnect=0;targetShapes=umlLifeline;portConstraint=eastwest;newEdgeStyle={&quot;curved&quot;:0,&quot;rounded&quot;:0};" parent="5yyWa3kHoQBunB_b2Re6-5" vertex="1">
          <mxGeometry x="45" y="680" width="10" height="30" as="geometry" />
        </mxCell>
        <mxCell id="5yyWa3kHoQBunB_b2Re6-90" value="" style="html=1;points=[[0,0,0,0,5],[0,1,0,0,-5],[1,0,0,0,5],[1,1,0,0,-5]];perimeter=orthogonalPerimeter;outlineConnect=0;targetShapes=umlLifeline;portConstraint=eastwest;newEdgeStyle={&quot;curved&quot;:0,&quot;rounded&quot;:0};" parent="5yyWa3kHoQBunB_b2Re6-5" vertex="1">
          <mxGeometry x="45" y="730" width="10" height="30" as="geometry" />
        </mxCell>
        <mxCell id="5yyWa3kHoQBunB_b2Re6-93" value="" style="html=1;points=[[0,0,0,0,5],[0,1,0,0,-5],[1,0,0,0,5],[1,1,0,0,-5]];perimeter=orthogonalPerimeter;outlineConnect=0;targetShapes=umlLifeline;portConstraint=eastwest;newEdgeStyle={&quot;curved&quot;:0,&quot;rounded&quot;:0};" parent="5yyWa3kHoQBunB_b2Re6-5" vertex="1">
          <mxGeometry x="45" y="790" width="10" height="40" as="geometry" />
        </mxCell>
        <mxCell id="5yyWa3kHoQBunB_b2Re6-98" value="" style="html=1;points=[[0,0,0,0,5],[0,1,0,0,-5],[1,0,0,0,5],[1,1,0,0,-5]];perimeter=orthogonalPerimeter;outlineConnect=0;targetShapes=umlLifeline;portConstraint=eastwest;newEdgeStyle={&quot;curved&quot;:0,&quot;rounded&quot;:0};" parent="5yyWa3kHoQBunB_b2Re6-5" vertex="1">
          <mxGeometry x="45" y="880" width="10" height="50" as="geometry" />
        </mxCell>
        <mxCell id="5yyWa3kHoQBunB_b2Re6-7" style="edgeStyle=orthogonalEdgeStyle;rounded=0;orthogonalLoop=1;jettySize=auto;html=1;dashed=1;endArrow=none;endFill=0;" parent="1" source="5yyWa3kHoQBunB_b2Re6-6" edge="1">
          <mxGeometry relative="1" as="geometry">
            <mxPoint x="150" y="1120" as="targetPoint" />
            <Array as="points">
              <mxPoint x="145" y="505" />
              <mxPoint x="146" y="505" />
            </Array>
          </mxGeometry>
        </mxCell>
        <mxCell id="5yyWa3kHoQBunB_b2Re6-8" style="edgeStyle=orthogonalEdgeStyle;rounded=0;orthogonalLoop=1;jettySize=auto;html=1;" parent="1" source="5yyWa3kHoQBunB_b2Re6-6" target="5yyWa3kHoQBunB_b2Re6-1" edge="1">
          <mxGeometry relative="1" as="geometry">
            <Array as="points">
              <mxPoint x="270" y="120" />
              <mxPoint x="270" y="120" />
            </Array>
          </mxGeometry>
        </mxCell>
        <mxCell id="5yyWa3kHoQBunB_b2Re6-9" value="main()" style="edgeLabel;html=1;align=center;verticalAlign=middle;resizable=0;points=[];" parent="5yyWa3kHoQBunB_b2Re6-8" vertex="1" connectable="0">
          <mxGeometry x="-0.3712" y="-4" relative="1" as="geometry">
            <mxPoint x="-7" y="-14" as="offset" />
          </mxGeometry>
        </mxCell>
        <mxCell id="5yyWa3kHoQBunB_b2Re6-6" value="Actor" style="shape=umlActor;verticalLabelPosition=bottom;verticalAlign=top;html=1;fillColor=#f5f5f5;fontColor=#333333;strokeColor=#666666;" parent="1" vertex="1">
          <mxGeometry x="130" y="90" width="30" height="60" as="geometry" />
        </mxCell>
        <mxCell id="5yyWa3kHoQBunB_b2Re6-12" style="edgeStyle=elbowEdgeStyle;rounded=0;orthogonalLoop=1;jettySize=auto;html=1;elbow=vertical;curved=0;" parent="1" edge="1">
          <mxGeometry relative="1" as="geometry">
            <mxPoint x="315" y="180" as="sourcePoint" />
            <mxPoint x="679.5" y="180" as="targetPoint" />
          </mxGeometry>
        </mxCell>
        <mxCell id="5yyWa3kHoQBunB_b2Re6-13" value="GetEnv(&quot;IONOS_EXPORTER_API_CYCLE&quot;)" style="edgeLabel;html=1;align=center;verticalAlign=middle;resizable=0;points=[];" parent="5yyWa3kHoQBunB_b2Re6-12" vertex="1" connectable="0">
          <mxGeometry x="-0.87" y="3" relative="1" as="geometry">
            <mxPoint x="96" y="-6" as="offset" />
          </mxGeometry>
        </mxCell>
        <mxCell id="5yyWa3kHoQBunB_b2Re6-23" value="CollectResources(m, ionos_api_cycle)" style="html=1;verticalAlign=bottom;endArrow=block;curved=0;rounded=0;entryX=0;entryY=0;entryDx=0;entryDy=5;" parent="1" source="5yyWa3kHoQBunB_b2Re6-20" target="5yyWa3kHoQBunB_b2Re6-22" edge="1">
          <mxGeometry x="-0.3953" relative="1" as="geometry">
            <mxPoint x="330" y="200" as="sourcePoint" />
            <mxPoint as="offset" />
          </mxGeometry>
        </mxCell>
        <mxCell id="5yyWa3kHoQBunB_b2Re6-24" value="CollectResources()" style="html=1;verticalAlign=bottom;endArrow=open;dashed=1;endSize=8;curved=0;rounded=0;exitX=0;exitY=1;exitDx=0;exitDy=-5;endFill=0;" parent="1" source="5yyWa3kHoQBunB_b2Re6-22" target="5yyWa3kHoQBunB_b2Re6-20" edge="1">
          <mxGeometry x="0.6689" relative="1" as="geometry">
            <mxPoint x="330" y="235" as="targetPoint" />
            <mxPoint as="offset" />
          </mxGeometry>
        </mxCell>
        <mxCell id="5yyWa3kHoQBunB_b2Re6-26" value="S3CollectResources(m, ionos_api_cycle)" style="html=1;verticalAlign=bottom;endArrow=block;curved=0;rounded=0;entryX=0;entryY=0;entryDx=0;entryDy=5;" parent="1" source="5yyWa3kHoQBunB_b2Re6-20" target="5yyWa3kHoQBunB_b2Re6-25" edge="1">
          <mxGeometry x="-0.3953" relative="1" as="geometry">
            <mxPoint x="320" y="265" as="sourcePoint" />
            <mxPoint as="offset" />
          </mxGeometry>
        </mxCell>
        <mxCell id="5yyWa3kHoQBunB_b2Re6-34" style="edgeStyle=orthogonalEdgeStyle;rounded=0;orthogonalLoop=1;jettySize=auto;html=1;curved=0;endArrow=block;endFill=1;" parent="1" target="5yyWa3kHoQBunB_b2Re6-3" edge="1">
          <mxGeometry relative="1" as="geometry">
            <mxPoint x="690" y="330" as="sourcePoint" />
            <mxPoint x="1179.5" y="455" as="targetPoint" />
            <Array as="points">
              <mxPoint x="780" y="330" />
              <mxPoint x="780" y="330" />
            </Array>
          </mxGeometry>
        </mxCell>
        <mxCell id="5yyWa3kHoQBunB_b2Re6-36" value="os.Getenv(&quot;AWS_SECRET_ACCESS_KEY&quot;)" style="edgeLabel;html=1;align=center;verticalAlign=middle;resizable=0;points=[];" parent="5yyWa3kHoQBunB_b2Re6-34" vertex="1" connectable="0">
          <mxGeometry x="-0.6159" y="1" relative="1" as="geometry">
            <mxPoint x="26" y="-9" as="offset" />
          </mxGeometry>
        </mxCell>
        <mxCell id="5yyWa3kHoQBunB_b2Re6-35" style="edgeStyle=orthogonalEdgeStyle;rounded=0;orthogonalLoop=1;jettySize=auto;html=1;curved=0;endArrow=block;endFill=1;" parent="1" edge="1">
          <mxGeometry relative="1" as="geometry">
            <mxPoint x="690" y="360" as="sourcePoint" />
            <mxPoint x="1180" y="360" as="targetPoint" />
            <Array as="points">
              <mxPoint x="780" y="360" />
              <mxPoint x="780" y="360" />
            </Array>
          </mxGeometry>
        </mxCell>
        <mxCell id="5yyWa3kHoQBunB_b2Re6-37" value="os.Getenv(&quot;AWS_ACCESS_KEY_ID&quot;)" style="edgeLabel;html=1;align=center;verticalAlign=middle;resizable=0;points=[];" parent="5yyWa3kHoQBunB_b2Re6-35" vertex="1" connectable="0">
          <mxGeometry x="-0.3551" y="1" relative="1" as="geometry">
            <mxPoint x="-58" y="-9" as="offset" />
          </mxGeometry>
        </mxCell>
        <mxCell id="5yyWa3kHoQBunB_b2Re6-38" style="edgeStyle=orthogonalEdgeStyle;rounded=0;orthogonalLoop=1;jettySize=auto;html=1;curved=0;" parent="1" edge="1">
          <mxGeometry relative="1" as="geometry">
            <mxPoint x="685" y="390" as="sourcePoint" />
            <mxPoint x="685" y="410" as="targetPoint" />
            <Array as="points">
              <mxPoint x="750" y="390" />
              <mxPoint x="750" y="410" />
            </Array>
          </mxGeometry>
        </mxCell>
        <mxCell id="5yyWa3kHoQBunB_b2Re6-40" value="createS3ServiceClient(endpoint.Region, accessKey, secretKey, endpoint.Endpoint)" style="edgeLabel;html=1;align=center;verticalAlign=middle;resizable=0;points=[];" parent="5yyWa3kHoQBunB_b2Re6-38" vertex="1" connectable="0">
          <mxGeometry x="-0.6267" y="-1" relative="1" as="geometry">
            <mxPoint x="177" y="-11" as="offset" />
          </mxGeometry>
        </mxCell>
        <mxCell id="5yyWa3kHoQBunB_b2Re6-42" style="edgeStyle=orthogonalEdgeStyle;rounded=0;orthogonalLoop=1;jettySize=auto;html=1;curved=0;" parent="1" target="5yyWa3kHoQBunB_b2Re6-44" edge="1">
          <mxGeometry relative="1" as="geometry">
            <mxPoint x="690" y="440" as="sourcePoint" />
            <mxPoint x="1320" y="441" as="targetPoint" />
            <Array as="points">
              <mxPoint x="690" y="441" />
            </Array>
          </mxGeometry>
        </mxCell>
        <mxCell id="5yyWa3kHoQBunB_b2Re6-43" value="session.newSession(&amp;amp;aws.Config)" style="edgeLabel;html=1;align=center;verticalAlign=middle;resizable=0;points=[];" parent="5yyWa3kHoQBunB_b2Re6-42" vertex="1" connectable="0">
          <mxGeometry x="-0.3551" y="1" relative="1" as="geometry">
            <mxPoint x="-116" y="-9" as="offset" />
          </mxGeometry>
        </mxCell>
        <mxCell id="5yyWa3kHoQBunB_b2Re6-45" style="edgeStyle=orthogonalEdgeStyle;rounded=0;orthogonalLoop=1;jettySize=auto;html=1;curved=0;dashed=1;endArrow=open;endFill=0;" parent="1" target="5yyWa3kHoQBunB_b2Re6-41" edge="1">
          <mxGeometry relative="1" as="geometry">
            <mxPoint x="1325" y="480" as="sourcePoint" />
            <mxPoint x="710" y="480" as="targetPoint" />
            <Array as="points">
              <mxPoint x="1325" y="481" />
              <mxPoint x="1008" y="481" />
              <mxPoint x="1008" y="480" />
            </Array>
          </mxGeometry>
        </mxCell>
        <mxCell id="5yyWa3kHoQBunB_b2Re6-48" value="session.Session" style="edgeLabel;html=1;align=center;verticalAlign=middle;resizable=0;points=[];" parent="5yyWa3kHoQBunB_b2Re6-45" vertex="1" connectable="0">
          <mxGeometry x="0.9089" y="-4" relative="1" as="geometry">
            <mxPoint x="21" y="-11" as="offset" />
          </mxGeometry>
        </mxCell>
        <mxCell id="5yyWa3kHoQBunB_b2Re6-49" style="edgeStyle=orthogonalEdgeStyle;rounded=0;orthogonalLoop=1;jettySize=auto;html=1;curved=0;" parent="1" target="5yyWa3kHoQBunB_b2Re6-5" edge="1">
          <mxGeometry relative="1" as="geometry">
            <mxPoint x="690" y="520" as="sourcePoint" />
            <mxPoint x="1330" y="521" as="targetPoint" />
            <Array as="points">
              <mxPoint x="690" y="521" />
            </Array>
          </mxGeometry>
        </mxCell>
        <mxCell id="5yyWa3kHoQBunB_b2Re6-50" value="s3.New(sess)" style="edgeLabel;html=1;align=center;verticalAlign=middle;resizable=0;points=[];" parent="5yyWa3kHoQBunB_b2Re6-49" vertex="1" connectable="0">
          <mxGeometry x="-0.3551" y="1" relative="1" as="geometry">
            <mxPoint x="-220" y="-9" as="offset" />
          </mxGeometry>
        </mxCell>
        <mxCell id="5yyWa3kHoQBunB_b2Re6-64" value="client.ListBuckets(nil)" style="html=1;verticalAlign=bottom;endArrow=classic;curved=0;rounded=0;entryX=0;entryY=0;entryDx=0;entryDy=5;endFill=1;" parent="1" edge="1">
          <mxGeometry x="-0.8642" relative="1" as="geometry">
            <mxPoint x="685" y="540" as="sourcePoint" />
            <mxPoint x="1495" y="540" as="targetPoint" />
            <mxPoint as="offset" />
          </mxGeometry>
        </mxCell>
        <mxCell id="5yyWa3kHoQBunB_b2Re6-65" value="s3.ListBucketsOutput" style="html=1;verticalAlign=bottom;endArrow=open;dashed=1;endSize=8;curved=0;rounded=0;exitX=0;exitY=1;exitDx=0;exitDy=-5;endFill=0;" parent="1" edge="1">
          <mxGeometry x="0.8395" relative="1" as="geometry">
            <mxPoint x="685" y="570" as="targetPoint" />
            <mxPoint x="1495" y="570" as="sourcePoint" />
            <mxPoint as="offset" />
          </mxGeometry>
        </mxCell>
        <mxCell id="5yyWa3kHoQBunB_b2Re6-71" style="edgeStyle=orthogonalEdgeStyle;rounded=0;orthogonalLoop=1;jettySize=auto;html=1;curved=0;" parent="1" target="5yyWa3kHoQBunB_b2Re6-73" edge="1">
          <mxGeometry relative="1" as="geometry">
            <mxPoint x="685" y="650" as="sourcePoint" />
            <mxPoint x="700" y="670" as="targetPoint" />
            <Array as="points">
              <mxPoint x="750" y="650" />
              <mxPoint x="750" y="670" />
            </Array>
          </mxGeometry>
        </mxCell>
        <mxCell id="5yyWa3kHoQBunB_b2Re6-72" value="procesBucket(client, bucketName)" style="edgeLabel;html=1;align=center;verticalAlign=middle;resizable=0;points=[];" parent="5yyWa3kHoQBunB_b2Re6-71" vertex="1" connectable="0">
          <mxGeometry x="-0.8789" y="2" relative="1" as="geometry">
            <mxPoint x="86" y="-8" as="offset" />
          </mxGeometry>
        </mxCell>
        <mxCell id="5yyWa3kHoQBunB_b2Re6-77" style="edgeStyle=orthogonalEdgeStyle;rounded=0;orthogonalLoop=1;jettySize=auto;html=1;curved=0;" parent="1" target="5yyWa3kHoQBunB_b2Re6-78" edge="1">
          <mxGeometry relative="1" as="geometry">
            <mxPoint x="980" y="730" as="targetPoint" />
            <mxPoint x="695" y="730.0285714285715" as="sourcePoint" />
            <Array as="points">
              <mxPoint x="870" y="730" />
              <mxPoint x="870" y="730" />
            </Array>
          </mxGeometry>
        </mxCell>
        <mxCell id="5yyWa3kHoQBunB_b2Re6-79" value="client.GetBucketTagging(&amp;amp;s3.getBucketTaggingInput)" style="edgeLabel;html=1;align=center;verticalAlign=middle;resizable=0;points=[];" parent="5yyWa3kHoQBunB_b2Re6-77" vertex="1" connectable="0">
          <mxGeometry x="-0.8486" y="1" relative="1" as="geometry">
            <mxPoint x="74" y="-9" as="offset" />
          </mxGeometry>
        </mxCell>
        <mxCell id="5yyWa3kHoQBunB_b2Re6-80" style="edgeStyle=orthogonalEdgeStyle;rounded=0;orthogonalLoop=1;jettySize=auto;html=1;curved=0;dashed=1;endArrow=open;endFill=0;" parent="1" target="5yyWa3kHoQBunB_b2Re6-76" edge="1">
          <mxGeometry relative="1" as="geometry">
            <mxPoint x="1500" y="759.9985714285715" as="sourcePoint" />
            <mxPoint x="700" y="759.9985714285715" as="targetPoint" />
            <Array as="points">
              <mxPoint x="1500" y="761" />
            </Array>
          </mxGeometry>
        </mxCell>
        <mxCell id="5yyWa3kHoQBunB_b2Re6-81" value="s3.GetBucketTaggingOutput" style="edgeLabel;html=1;align=center;verticalAlign=middle;resizable=0;points=[];" parent="5yyWa3kHoQBunB_b2Re6-80" vertex="1" connectable="0">
          <mxGeometry x="0.6782" y="1" relative="1" as="geometry">
            <mxPoint x="-44" y="-12" as="offset" />
          </mxGeometry>
        </mxCell>
        <mxCell id="5yyWa3kHoQBunB_b2Re6-91" value="client.GetBucketAcl(&amp;amp;s3.GetBucketAclInput)" style="html=1;verticalAlign=bottom;endArrow=classic;curved=0;rounded=0;entryX=0;entryY=0;entryDx=0;entryDy=5;endFill=1;" parent="1" source="5yyWa3kHoQBunB_b2Re6-76" target="5yyWa3kHoQBunB_b2Re6-90" edge="1">
          <mxGeometry x="-0.7125" relative="1" as="geometry">
            <mxPoint x="1425" y="785" as="sourcePoint" />
            <mxPoint as="offset" />
          </mxGeometry>
        </mxCell>
        <mxCell id="5yyWa3kHoQBunB_b2Re6-92" value="s3.GetBucketAclOutput" style="html=1;verticalAlign=bottom;endArrow=open;dashed=1;endSize=8;curved=0;rounded=0;exitX=0;exitY=1;exitDx=0;exitDy=-5;endFill=0;" parent="1" source="5yyWa3kHoQBunB_b2Re6-90" target="5yyWa3kHoQBunB_b2Re6-76" edge="1">
          <mxGeometry x="0.8125" relative="1" as="geometry">
            <mxPoint x="1425" y="855" as="targetPoint" />
            <mxPoint as="offset" />
          </mxGeometry>
        </mxCell>
        <mxCell id="5yyWa3kHoQBunB_b2Re6-94" value="clientListObjectsV2(&amp;amp;s3.ListObjectsV2Input)" style="html=1;verticalAlign=bottom;endArrow=classic;curved=0;rounded=0;entryX=0;entryY=0;entryDx=0;entryDy=5;endFill=1;" parent="1" source="5yyWa3kHoQBunB_b2Re6-76" target="5yyWa3kHoQBunB_b2Re6-93" edge="1">
          <mxGeometry x="-0.7125" relative="1" as="geometry">
            <mxPoint x="1425" y="845" as="sourcePoint" />
            <mxPoint as="offset" />
          </mxGeometry>
        </mxCell>
        <mxCell id="5yyWa3kHoQBunB_b2Re6-95" value="s3.ListObjectsV2Output" style="html=1;verticalAlign=bottom;endArrow=open;dashed=1;endSize=8;curved=0;rounded=0;exitX=0;exitY=1;exitDx=0;exitDy=-5;endFill=0;" parent="1" source="5yyWa3kHoQBunB_b2Re6-93" target="5yyWa3kHoQBunB_b2Re6-76" edge="1">
          <mxGeometry x="0.8125" relative="1" as="geometry">
            <mxPoint x="1425" y="875" as="targetPoint" />
            <mxPoint as="offset" />
          </mxGeometry>
        </mxCell>
        <mxCell id="5yyWa3kHoQBunB_b2Re6-99" value="client.GetObject(&amp;amp;s3.GetObjectInput)" style="html=1;verticalAlign=bottom;endArrow=classic;curved=0;rounded=0;entryX=0;entryY=0;entryDx=0;entryDy=5;endFill=1;" parent="1" source="5yyWa3kHoQBunB_b2Re6-96" target="5yyWa3kHoQBunB_b2Re6-98" edge="1">
          <mxGeometry x="-0.7233" relative="1" as="geometry">
            <mxPoint x="1425" y="935" as="sourcePoint" />
            <mxPoint as="offset" />
          </mxGeometry>
        </mxCell>
        <mxCell id="5yyWa3kHoQBunB_b2Re6-100" value="s3.GetObjectOutput" style="html=1;verticalAlign=bottom;endArrow=open;dashed=1;endSize=8;curved=0;rounded=0;exitX=0;exitY=1;exitDx=0;exitDy=-5;endFill=0;" parent="1" source="5yyWa3kHoQBunB_b2Re6-98" target="5yyWa3kHoQBunB_b2Re6-96" edge="1">
          <mxGeometry x="0.8491" relative="1" as="geometry">
            <mxPoint x="1425" y="1005" as="targetPoint" />
            <mxPoint as="offset" />
          </mxGeometry>
        </mxCell>
        <mxCell id="5yyWa3kHoQBunB_b2Re6-102" style="edgeStyle=orthogonalEdgeStyle;rounded=0;orthogonalLoop=1;jettySize=auto;html=1;curved=0;" parent="1" target="5yyWa3kHoQBunB_b2Re6-76" edge="1">
          <mxGeometry relative="1" as="geometry">
            <mxPoint x="700" y="1030" as="sourcePoint" />
            <mxPoint x="700" y="1050" as="targetPoint" />
            <Array as="points">
              <mxPoint x="800" y="1030" />
              <mxPoint x="800" y="1050" />
            </Array>
          </mxGeometry>
        </mxCell>
        <mxCell id="5yyWa3kHoQBunB_b2Re6-103" value="io.ReadAll(result.Body)" style="edgeLabel;html=1;align=center;verticalAlign=middle;resizable=0;points=[];" parent="5yyWa3kHoQBunB_b2Re6-102" vertex="1" connectable="0">
          <mxGeometry x="-0.5985" y="2" relative="1" as="geometry">
            <mxPoint x="15" y="-8" as="offset" />
          </mxGeometry>
        </mxCell>
        <mxCell id="5yyWa3kHoQBunB_b2Re6-104" style="edgeStyle=orthogonalEdgeStyle;rounded=0;orthogonalLoop=1;jettySize=auto;html=1;curved=0;entryX=0.5;entryY=1;entryDx=0;entryDy=0;entryPerimeter=0;" parent="1" target="5yyWa3kHoQBunB_b2Re6-25" edge="1">
          <mxGeometry relative="1" as="geometry">
            <mxPoint x="315" y="1119" as="sourcePoint" />
            <mxPoint x="670" y="1120" as="targetPoint" />
            <Array as="points">
              <mxPoint x="315" y="1120" />
            </Array>
          </mxGeometry>
        </mxCell>
        <mxCell id="5yyWa3kHoQBunB_b2Re6-105" value="StartPrometheus(m)" style="edgeLabel;html=1;align=center;verticalAlign=middle;resizable=0;points=[];" parent="5yyWa3kHoQBunB_b2Re6-104" vertex="1" connectable="0">
          <mxGeometry x="-0.3134" y="2" relative="1" as="geometry">
            <mxPoint x="-70" y="-8" as="offset" />
          </mxGeometry>
        </mxCell>
        <mxCell id="5yyWa3kHoQBunB_b2Re6-106" value="&lt;b&gt;loop&lt;/b&gt;" style="shape=umlFrame;whiteSpace=wrap;html=1;pointerEvents=0;recursiveResize=0;container=1;collapsible=0;width=50;strokeWidth=3;fillColor=#e1d5e7;strokeColor=#9673a6;" parent="1" vertex="1">
          <mxGeometry x="460" y="580" width="1120" height="510" as="geometry" />
        </mxCell>
        <mxCell id="5yyWa3kHoQBunB_b2Re6-113" value="&lt;b&gt;loop&lt;/b&gt;" style="shape=umlFrame;whiteSpace=wrap;html=1;pointerEvents=0;recursiveResize=0;container=1;collapsible=0;width=50;strokeColor=#9673a6;strokeWidth=3;fillColor=#e1d5e7;" parent="5yyWa3kHoQBunB_b2Re6-106" vertex="1">
          <mxGeometry x="30" y="240" width="1070" height="260" as="geometry" />
        </mxCell>
        <mxCell id="5yyWa3kHoQBunB_b2Re6-114" value="&lt;b&gt;[while object exists]&lt;/b&gt;" style="text;html=1;align=center;verticalAlign=middle;resizable=0;points=[];autosize=1;strokeColor=none;fillColor=none;" parent="5yyWa3kHoQBunB_b2Re6-113" vertex="1">
          <mxGeometry x="40" width="140" height="30" as="geometry" />
        </mxCell>
        <mxCell id="5yyWa3kHoQBunB_b2Re6-108" value="&lt;b&gt;[for each bucket]&lt;/b&gt;" style="text;html=1;align=center;verticalAlign=middle;resizable=0;points=[];autosize=1;strokeColor=none;fillColor=none;" parent="5yyWa3kHoQBunB_b2Re6-106" vertex="1">
          <mxGeometry x="50" width="120" height="30" as="geometry" />
        </mxCell>
        <mxCell id="5yyWa3kHoQBunB_b2Re6-115" value="&lt;b&gt;loop&lt;/b&gt;" style="shape=umlFrame;whiteSpace=wrap;html=1;pointerEvents=0;recursiveResize=0;container=1;collapsible=0;width=50;strokeColor=#9673a6;strokeWidth=3;fillColor=#e1d5e7;" parent="1" vertex="1">
          <mxGeometry x="510" y="883" width="1040" height="187" as="geometry" />
        </mxCell>
        <mxCell id="5yyWa3kHoQBunB_b2Re6-116" value="&lt;b&gt;[for each object]&lt;/b&gt;" style="text;html=1;align=center;verticalAlign=middle;resizable=0;points=[];autosize=1;strokeColor=none;fillColor=none;" parent="5yyWa3kHoQBunB_b2Re6-115" vertex="1">
          <mxGeometry x="40" width="120" height="30" as="geometry" />
        </mxCell>
        <mxCell id="J9RaOYjKYcgsMNnxFm2F-1" value="Text" style="text;html=1;align=center;verticalAlign=middle;whiteSpace=wrap;rounded=0;" vertex="1" parent="1">
          <mxGeometry x="522" y="191" width="60" height="30" as="geometry" />
        </mxCell>
        <mxCell id="J9RaOYjKYcgsMNnxFm2F-2" value="Text" style="text;html=1;align=center;verticalAlign=middle;whiteSpace=wrap;rounded=0;" vertex="1" parent="1">
          <mxGeometry x="522" y="191" width="60" height="30" as="geometry" />
        </mxCell>
        <mxCell id="J9RaOYjKYcgsMNnxFm2F-3" value="S3_Scraper" style="text;html=1;align=center;verticalAlign=middle;resizable=0;points=[];autosize=1;strokeColor=none;fillColor=none;fontStyle=1" vertex="1" parent="1">
          <mxGeometry x="40" y="12" width="81" height="26" as="geometry" />
        </mxCell>
      </root>
    </mxGraphModel>
  </diagram>
</mxfile>
